# xmcd
#
# Track frame offsets:
#	150
#	10081
#	23792
#	32805
#	42991
#
# Disc length: 727 seconds
#
# Revision: 1
# Processed by: cddbd v1.5.1PL0 Copyright (c) Steve Scherf et al.
# Submitted via: EasyCDDAExtractor 5.0.6
#
DISCID=3202d505
DTITLE=Knaw - Born To Hustle Roses Down The Alleys Of The Dead
DYEAR=2002
DGENRE=Punk, Rock
TTITLE0=21 Up
TTITLE1=Poetry Of Departures
TTITLE2=Oliver And The Great Big Ocean
TTITLE3=The Ring On Her Finger
TTITLE4=Friends In Places
EXTD=
EXTT0=
EXTT1=
EXTT2=
EXTT3=
EXTT4=
PLAYORDER=
